<svg width="10" height="20" viewBox="0 0 10 20" fill="none" xmlns="http://www.w3.org/2000/svg">
<path d="M0.00337804 10.0157C0.00272621 10.3489 0.118916 10.6718 0.331779 10.9284L7.47095 19.4848C7.7133 19.7761 8.06157 19.9592 8.43913 19.994C8.81668 20.0287 9.19261 19.9123 9.48419 19.6702C9.77578 19.4282 9.95915 19.0803 9.99396 18.7032C10.0288 18.3261 9.91217 17.9507 9.66981 17.6595L3.27312 10.0157L9.44136 2.37192C9.55996 2.22605 9.64853 2.05821 9.70198 1.87804C9.75542 1.69787 9.77269 1.50893 9.75279 1.32207C9.73289 1.13521 9.67621 0.954127 9.586 0.789221C9.4958 0.624314 9.37386 0.478838 9.22718 0.361155C9.08037 0.230555 8.90814 0.131644 8.72127 0.070618C8.5344 0.00959249 8.33693 -0.0122305 8.14123 0.00651254C7.94553 0.0252555 7.75581 0.0841608 7.58396 0.179541C7.41211 0.274922 7.26183 0.404722 7.14255 0.560807L0.24611 9.11726C0.0668939 9.3812 -0.018569 9.69753 0.00337804 10.0157V10.0157Z" fill="white"/>
</svg>
